/* XPM */
static char * be_aux_xpm[] = {
"128 128 4 1",
" 	c None",
".	c #000000",
"+	c #FFFFFF",
"@	c #00C100",
"................................................................................................................................",
"................................................................................................................................",
"................................................................................................................................",
"...++++++++++++++++++++++++++++++++++++++++++++++++++++++++++ ... +++++++++++++++++++++++++++++++++++++++++++++++++++++++++++...",
"...+++++++ .... +++++++    +++++++ .... ++++++++ ... +++++++ ..... +++++++++++++++++ ... ++++++ ... +++++++++++++++++++++++++...",
"...++++++ ...... +++++ .... +++++ ...... ++++++ ..... ++++++.......++++++++++++++++ ..... ++++ ..... ++++++++++++++++++++++++...",
"...++++++ ...... ++++ ...... ++++....... ++++++.......++++++.......++++++++++++++++.......++++.......++++++++++++++++++++++++...",
"...++++++........++++ ...... ++++....... ++++++.......++++++.......++++++++++++++++.......++++.......++++++++++++++++++++++++...",
"...++++++ ...... ++++ ...... ++++....... ++++++.......++++++.......++++++++++++++++.......++++.......++++++++++++++++++++++++...",
"...++++++ ...... ++++ ...... ++++....... ++++++.......++++++ ..... ++++++++++++++++.......++++.......++++++++++++++++++++++++...",
"...+++++++ .... +++++ ...... ++++ ......+++++++ ..... +++++++     +++++++++++++++++ ..... ++++ ..... ++++++++++++++++++++++++...",
"...+++++++++++++++++++ .... ++++++ ... +++++++++     +++++++++++++++++++++++++++++++     ++++++     +++++++++++++++++++++++++...",
"...++++++++++++++++++++++++++++++++++++++++++++++++++++++++++++++++++++++++++++++++++++++++++++++++++++++++++++++++++++++++++...",
"...++++++++++++++++++++++++++++++++++++++++++++++++++++++++++++++++++++++++++++++++++++++++++++++++++++++++++++++++++++++++++...",
"................................................................................................................................",
"................................................................................................................................",
"................................................................................................................................",
"...++++++++++++++++...@@@@@@@@@@@@@@@@@@@@@@@@@@@@@@@@@@@@@@@@@@@@@@@@@@@@@@@@@@@@@@@@@@@@@@@@@@@@@@@@@@@@@@@@@@@@@@@@@@@@@@@...",
"...++++++++++++++++...@@@@@@@@@@@@@@@@@@@@@@@@@@@@@@@@@@@@@@@@@@@@@@@@@@@@@@@@@@@@@@@@@@@@@@@@@@@@@@@@@@@@@@@@@@@@@@@@@@@@@@@...",
"...++++++++++++++++...@@@@@@@@@@@@@@@@@@@@@@@@@@@@@@@@@@@@@@@@@@@@@@@@@@@@@@@@@@@@@@@@@@@@@@@@@@@@@@@@@@@@@@@@@@@@@@@@@@@@@@@...",
"...++++++++++++++++...@@@@@@@@@@@@@@@@@@@@@@@@@@@@@@@@@@@@@@@@@@@@@@@@@@@@@@@@@@@@@@@@@@@@@@@@@@@@@@@@@@@@@@@@@@@@@@@@@@@@@@@...",
"...++++++++++++++++...@@@@@@@@@@@@@@@@@@@@@@@@@@@@@@@@@@@@@@@@@@@@@@@@@@@@@@@@@@@@@@@@@@@@@@@@@@@@@@@@@@@@@@@@@@@@@@@@@@@@@@@...",
"...++++++++++++++++...@@@@.........................@@@@@@@@@@@@................................................@@@@@@@@@@@@@@...",
"...++++++++++++++++...@@@@.........................@@@@@@@@@@@@................................................@@@@@@@@@@@@@@...",
"...+++++     ++++++...@@@@.........................@@@@@@@@@@@@................................................@@@@@@@@@@@@@@...",
"...++++ ..... +++++...@@@@@@@@@@@@@@@@@@@@@@@@@@@@@@@@@@@@@@@@@@@@@@@@@@@@@@@@@@@@@@@@@@@@@@@@@@@@@@@@@@@@@@@@@@@@@@@@@@@@@@@...",
"...+++ ...... +++++...@@@@@@@@@@@@@@@@@@@@@@@@@@@@@@@@@@@@@@@@@@@@@@@@@@@@@@@@@@@@@@@@@@@@@@@@@@@@@@@@@@@@@@@@@@@@@@@@@@@@@@@...",
"...+++ .......+++++...@@@@@@@@@@@@@@@@@@@@@@@@@@@@@@@@@@@@@@@@@@@@@@@@@@@@@@@@@@@@@@@@@@@@@@@@@@@@@@@@@@@@@@@@@@@@@@@@@@@@@@@...",
"...+++ .......+++++...@@@@@@@@@@@@@@@@@@@@@@@@@@@@@@@@@@@@@@@@@@@@@@@@@@@@@@@@@@@@@@@@@@@@@@@@@@@@@@@@@@@@@@@@@@@@@@@@@@@@@@@...",
"...+++ .......+++++...@@@@@@@@@@@@@@@@@@@@@@@@@@@@@@@@@@@@@@@@@@@@@@@@@@@@@@@@@@@@@@@@@@@@@@@@@@@@@@@@@@@@@@@@@@@@@@@@@@@@@@@...",
"...+++ ...... +++++...@@@@.........................@@@@@@@@@@@@................................................@@@@@@@@@@@@@@...",
"...++++  ... ++++++...@@@@.........................@@@@@@@@@@@@................................................@@@@@@@@@@@@@@...",
"...++++++++++++++++...@@@@.........................@@@@@@@@@@@@................................................@@@@@@@@@@@@@@...",
"...++++++++++++++++...@@@@@@@@@@@@@@@@@@@@@@@@@@@@@@@@@@@@@@@@@@@@@@@@@@@@@@@@@@@@@@@@@@@@@@@@@@@@@@@@@@@@@@@@@@@@@@@@@@@@@@@...",
"...++++++++++++++++...@@@@@@@@@@@@@@@@@@@@@@@@@@@@@@@@@@@@@@@@@@@@@@@@@@@@@@@@@@@@@@@@@@@@@@@@@@@@@@@@@@@@@@@@@@@@@@@@@@@@@@@...",
"...++++++++++++++++...@@@@@@@@@@@@@@@@@@@@@@@@@@@@@@@@@@@@@@@@@@@@@@@@@@@@@@@@@@@@@@@@@@@@@@@@@@@@@@@@@@@@@@@@@@@@@@@@@@@@@@@...",
"...++++++++++++++++...@@@@@@@@@@@@@@@@@@@@@@@@@@@@@@@@@@@@@@@@@@@@@@@@@@@@@@@@@@@@@@@@@@@@@@@@@@@@@@@@@@@@@@@@@@@@@@@@@@@@@@@...",
"...++++++++++++++++...@@@@...@@@@@@@@@@@@@@@@@@@@@@@@@@@@@@@@@@...@@@@@@@@@@@@@@@@@@@@...@@@@@@@@@@@@@@@@@@@@@@@@@@@@@@@@@@@@...",
"...++++++++++++++++...@@@@........................@@@@@@@@@@@@@...............................................@@@@@@@@@@@@@@@...",
"...++++++++++++++++...@@@@........................@@@@@@@@@@@@@...............................................@@@@@@@@@@@@@@@...",
"...++++++++++++++++...@@@@........................@@@@@@@@@@@@@...............................................@@@@@@@@@@@@@@@...",
"...++++++++++++++++...@@@@@@@@@@@@@@@@@@@@@@@@@@@@@@@@@@@@@@@@@@@@@@@@@@@@@@@@@@@@@@@@@@@@@@@@@@@@@@@@@@@@@@@@@@@@@@@@@@@@@@@...",
"...++++     +++++++...@@@@@@@@@@@@@@@@@@@@@@@@@@@@@@@@@@@@@@@@@@@@@@@@@@@@@@@@@@@@@@@@@@@@@@@@@@@@@@@@@@@@@@@@@@@@@@@@@@@@@@@...",
"...+++ ..... ++++++...@@@@@@@@@@@@@@@@@@@@@@@@@@@@@@@@@@@@@@@@@@@@@@@@@@@@@@@@@@@@@@@@@@@@@@@@@@@@@@@@@@@@@@@@@@@@@@@@@@@@@@@...",
"...+++ ...... +++++...@@@@@@@@@@@@@@@@@@@@@@@@@@@@@@@@@@@@@@@@@@@@@@@@@@@@@@@@@@@@@@@@@@@@@@@@@@@@@@@@@@@@@@@@@@@@@@@@@@@@@@@...",
"...+++....... +++++...@@@@.........................@@@@@@@@@@@@................................................@@@@@@@@@@@@@@...",
"...+++....... +++++...@@@@.........................@@@@@@@@@@@@................................................@@@@@@@@@@@@@@...",
"...+++....... +++++...@@@@.........................@@@@@@@@@@@@................................................@@@@@@@@@@@@@@...",
"...+++ ...... +++++...@@@@@@@@@@@@@@@@@@@@@@@@@@@@@@@@@@@@@@@@@@@@@@@@@@@@@@@@@@@@@@@@@@@@@@@@@@@@@@@@@@@@@@@@@@@@@@@@@@@@@@@...",
"...++++ ...  ++++++...@@@@@@@@@@@@@@@@@@@@@@@@@@@@@@@@@@@@@@@@@@@@@@@@@@@@@@@@@@@@@@@@@@@@@@@@@@@@@@@@@@@@@@@@@@@@@@@@@@@@@@@...",
"...++++++++++++++++...@@@@@@@@@@@@@@@@@@@@@@@@@@@@@@@@@@@@@@@@@@@@@@@@@@@@@@@@@@@@@@@@@@@@@@@@@@@@@@@@@@@@@@@@@@@@@@@@@@@@@@@...",
"...++++++++++++++++...@@@@@@@@@@@@@@@@@@@@@@@@@@@@@@@@@@@@@@@@@@@@@@@@@@@@@@@@@@@@@@@@@@@@@@@@@@@@@@@@@@@@@@@@@@@@@@@@@@@@@@@...",
"...++++++++++++++++...@@@@@@@@@@@@@@@@@@@@@@@@@@@@@@@@@@@@@@@@@@@@@@@@@@@@@@@@@@@@@@@@@@@@@@@@@@@@@@@@@@@@@@@@@@@@@@@@@@@@@@@...",
"...++++++++++++++++...@@@@.........................@@@@@@@@@@@@................................................@@@@@@@@@@@@@@...",
"...++++++++++++++++...@@@@.........................@@@@@@@@@@@@................................................@@@@@@@@@@@@@@...",
"...++++++++++++++++...@@@@.........................@@@@@@@@@@@@................................................@@@@@@@@@@@@@@...",
"...+++  .  ++++++++...@@@@@@@@@@@@@@@@@@@@@@@@@@@@@@@@@@@@@@@@@@@@@@@@@@@@@@@@@@@@@@@@@@@@@@@@@@@@@@@@@@@@@@@@@@@@@@@@@@@@@@@...",
"...++ ..... +++++++...@@@@@@@@@@@@@@@@@@@@@@@@@@@@@@@@@@@@@@@@@@@@@@@@@@@@@@@@@@@@@@@@@@@@@@@@@@@@@@@@@@@@@@@@@@@@@@@@@@@@@@@...",
"...++.......+++++++...@@@@@@@@@@@@@@@@@@@@@@@@@@@@@@@@@@@@@@@@@@@@@@@@@@@@@@@@@@@@@@@@@@@@@@@@@@@@@@@@@@@@@@@@@@@@@@@@@@@@@@@...",
"...++.......+++++++...@@@@@@@@@@@@@@@@@@@@@@@@@@@@@@@@@@@@@@@@@@@@@@@@@@@@@@@@@@@@@@@@@@@@@@@@@@@@@@@@@@@@@@@@@@@@@@@@@@@@@@@...",
"...++.......+++++++...@@@@...@@@@@@@@@@@@@@@@@@@@@@@@@@@@@@@@@@...@@@@@@@@@@@@@@@@@@@@...@@@@@@@@@@@@@@@@@@@@@@@@@@@@@@@@@@@@...",
"...++.......+++++++...@@@@........................@@@@@@@@@@@@@...............................................@@@@@@@@@@@@@@@...",
"...++ ..... +++++++...@@@@........................@@@@@@@@@@@@@...............................................@@@@@@@@@@@@@@@...",
"...+++  .  ++++++++...@@@@........................@@@@@@@@@@@@@...............................................@@@@@@@@@@@@@@@...",
"...++++++++++++++++...@@@@@@@@@@@@@@@@@@@@@@@@@@@@@@@@@@@@@@@@@@@@@@@@@@@@@@@@@@@@@@@@@@@@@@@@@@@@@@@@@@@@@@@@@@@@@@@@@@@@@@@...",
"...++++++++++++++++...@@@@@@@@@@@@@@@@@@@@@@@@@@@@@@@@@@@@@@@@@@@@@@@@@@@@@@@@@@@@@@@@@@@@@@@@@@@@@@@@@@@@@@@@@@@@@@@@@@@@@@@...",
"...++++++++++++++++...@@@@@@@@@@@@@@@@@@@@@@@@@@@@@@@@@@@@@@@@@@@@@@@@@@@@@@@@@@@@@@@@@@@@@@@@@@@@@@@@@@@@@@@@@@@@@@@@@@@@@@@...",
"...++++++++++++++++...@@@@@@@@@@@@@@@@@@@@@@@@@@@@@@@@@@@@@@@@@@@@@@@@@@@@@@@@@@@@@@@@@@@@@@@@@@@@@@@@@@@@@@@@@@@@@@@@@@@@@@@...",
"...++++++++++++++++...@@@@.........................@@@@@@@@@@@@................................................@@@@@@@@@@@@@@...",
"...++++++++++++++++...@@@@.........................@@@@@@@@@@@@................................................@@@@@@@@@@@@@@...",
"...+++++.....++++++...@@@@.........................@@@@@@@@@@@@................................................@@@@@@@@@@@@@@...",
"...++++.......+++++...@@@@@@@@@@@@@@@@@@@@@@@@@@@@@@@@@@@@@@@@@@@@@@@@@@@@@@@@@@@@@@@@@@@@@@@@@@@@@@@@@@@@@@@@@@@@@@@@@@@@@@@...",
"...++++.......+++++...@@@@@@@@@@@@@@@@@@@@@@@@@@@@@@@@@@@@@@@@@@@@@@@@@@@@@@@@@@@@@@@@@@@@@@@@@@@@@@@@@@@@@@@@@@@@@@@@@@@@@@@...",
"...++++.......+++++...@@@@@@@@@@@@@@@@@@@@@@@@@@@@@@@@@@@@@@@@@@@@@@@@@@@@@@@@@@@@@@@@@@@@@@@@@@@@@@@@@@@@@@@@@@@@@@@@@@@@@@@...",
"...++++.......+++++...@@@@@@@@@@@@@@@@@@@@@@@@@@@@@@@@@@@@@@@@@@@@@@@@@@@@@@@@@@@@@@@@@@@@@@@@@@@@@@@@@@@@@@@@@@@@@@@@@@@@@@@...",
"...++++.......+++++...@@@@@@@@@@@@@@@@@@@@@@@@@@@@@@@@@@@@@@@@@@@@@@@@@@@@@@@@@@@@@@@@@@@@@@@@@@@@@@@@@@@@@@@@@@@@@@@@@@@@@@@...",
"...+++++.....++++++...@@@@.........................@@@@@@@@@@@@................................................@@@@@@@@@@@@@@...",
"...++++++++++++++++...@@@@.........................@@@@@@@@@@@@................................................@@@@@@@@@@@@@@...",
"...++++++++++++++++...@@@@.........................@@@@@@@@@@@@................................................@@@@@@@@@@@@@@...",
"...++++++++++++++++...@@@@@@@@@@@@@@@@@@@@@@@@@@@@@@@@@@@@@@@@@@@@@@@@@@@@@@@@@@@@@@@@@@@@@@@@@@@@@@@@@@@@@@@@@@@@@@@@@@@@@@@...",
"...++++++++++++++++...@@@@@@@@@@@@@@@@@@@@@@@@@@@@@@@@@@@@@@@@@@@@@@@@@@@@@@@@@@@@@@@@@@@@@@@@@@@@@@@@@@@@@@@@@@@@@@@@@@@@@@@...",
"...++++++++++++++++...@@@@@@@@@@@@@@@@@@@@@@@@@@@@@@@@@@@@@@@@@@@@@@@@@@@@@@@@@@@@@@@@@@@@@@@@@@@@@@@@@@@@@@@@@@@@@@@@@@@@@@@...",
"...++++++++++++++++...@@@@@@@@@@@@@@@@@@@@@@@@@@@@@@@@@@@@@@@@@@@@@@@@@@@@@@@@@@@@@@@@@@@@@@@@@@@@@@@@@@@@@@@@@@@@@@@@@@@@@@@...",
"...++++++++++++++++...@@@@...@@@@@@@@@@@@@@@@@@@@@@@@@@@@@@@@@@...@@@@@@@@@@@@@@@@@@@@...@@@@@@@@@@@@@@@@@@@@@@@@@@@@@@@@@@@@...",
"...++++++++++++++++...@@@@........................@@@@@@@@@@@@@...............................................@@@@@@@@@@@@@@@...",
"...++++++++++++++++...@@@@........................@@@@@@@@@@@@@...............................................@@@@@@@@@@@@@@@...",
"...++++++++++++++++...@@@@........................@@@@@@@@@@@@@...............................................@@@@@@@@@@@@@@@...",
"...++++++++++++++++...@@@@@@@@@@@@@@@@@@@@@@@@@@@@@@@@@@@@@@@@@@@@@@@@@@@@@@@@@@@@@@@@@@@@@@@@@@@@@@@@@@@@@@@@@@@@@@@@@@@@@@@...",
"...++++++++++++++++...@@@@@@@@@@@@@@@@@@@@@@@@@@@@@@@@@@@@@@@@@@@@@@@@@@@@@@@@@@@@@@@@@@@@@@@@@@@@@@@@@@@@@@@@@@@@@@@@@@@@@@@...",
"...++++++++++++++++...@@@@@@@@@@@@@@@@@@@@@@@@@@@@@@@@@@@@@@@@@@@@@@@@@@@@@@@@@@@@@@@@@@@@@@@@@@@@@@@@@@@@@@@@@@@@@@@@@@@@@@@...",
"...++++     +++++++...@@@@@@@@@@@@@@@@@@@@@@@@@@@@@@@@@@@@@@@@@@@@@@@@@@@@@@@@@@@@@@@@@@@@@@@@@@@@@@@@@@@@@@@@@@@@@@@@@@@@@@@...",
"...+++ ..... ++++++...@@@@.........................@@@@@@@@@@@@................................................@@@@@@@@@@@@@@...",
"...+++....... +++++...@@@@.........................@@@@@@@@@@@@................................................@@@@@@@@@@@@@@...",
"...+++....... +++++...@@@@.........................@@@@@@@@@@@@................................................@@@@@@@@@@@@@@...",
"...+++....... +++++...@@@@@@@@@@@@@@@@@@@@@@@@@@@@@@@@@@@@@@@@@@@@@@@@@@@@@@@@@@@@@@@@@@@@@@@@@@@@@@@@@@@@@@@@@@@@@@@@@@@@@@@...",
"...+++....... +++++...@@@@@@@@@@@@@@@@@@@@@@@@@@@@@@@@@@@@@@@@@@@@@@@@@@@@@@@@@@@@@@@@@@@@@@@@@@@@@@@@@@@@@@@@@@@@@@@@@@@@@@@...",
"...+++ ..... ++++++...@@@@@@@@@@@@@@@@@@@@@@@@@@@@@@@@@@@@@@@@@@@@@@@@@@@@@@@@@@@@@@@@@@@@@@@@@@@@@@@@@@@@@@@@@@@@@@@@@@@@@@@...",
"...++++     +++++++...@@@@@@@@@@@@@@@@@@@@@@@@@@@@@@@@@@@@@@@@@@@@@@@@@@@@@@@@@@@@@@@@@@@@@@@@@@@@@@@@@@@@@@@@@@@@@@@@@@@@@@@...",
"...++++++++++++++++...@@@@@@@@@@@@@@@@@@@@@@@@@@@@@@@@@@@@@@@@@@@@@@@@@@@@@@@@@@@@@@@@@@@@@@@@@@@@@@@@@@@@@@@@@@@@@@@@@@@@@@@...",
"...++++++++++++++++...@@@@.........................@@@@@@@@@@@@................................................@@@@@@@@@@@@@@...",
"...++++++++++++++++...@@@@.........................@@@@@@@@@@@@................................................@@@@@@@@@@@@@@...",
"...++++++++++++++++...@@@@.........................@@@@@@@@@@@@................................................@@@@@@@@@@@@@@...",
"...++++++++++++++++...@@@@@@@@@@@@@@@@@@@@@@@@@@@@@@@@@@@@@@@@@@@@@@@@@@@@@@@@@@@@@@@@@@@@@@@@@@@@@@@@@@@@@@@@@@@@@@@@@@@@@@@...",
"...++++++++++++++++...@@@@@@@@@@@@@@@@@@@@@@@@@@@@@@@@@@@@@@@@@@@@@@@@@@@@@@@@@@@@@@@@@@@@@@@@@@@@@@@@@@@@@@@@@@@@@@@@@@@@@@@...",
"...++++++++++++++++...@@@@@@@@@@@@@@@@@@@@@@@@@@@@@@@@@@@@@@@@@@@@@@@@@@@@@@@@@@@@@@@@@@@@@@@@@@@@@@@@@@@@@@@@@@@@@@@@@@@@@@@...",
"...++++++++++++++++...@@@@@@@@@@@@@@@@@@@@@@@@@@@@@@@@@@@@@@@@@@@@@@@@@@@@@@@@@@@@@@@@@@@@@@@@@@@@@@@@@@@@@@@@@@@@@@@@@@@@@@@...",
"...++++++++++++++++...@@@@...@@@@@@@@@@@@@@@@@@@@@@@@@@@@@@@@@@...@@@@@@@@@@@@@@@@@@@@...@@@@@@@@@@@@@@@@@@@@@@@@@@@@@@@@@@@@...",
"...++++++++++++++++...@@@@........................@@@@@@@@@@@@@...............................................@@@@@@@@@@@@@@@...",
"...++++++++++++++++...@@@@........................@@@@@@@@@@@@@...............................................@@@@@@@@@@@@@@@...",
"...++++++++++++++++...@@@@........................@@@@@@@@@@@@@...............................................@@@@@@@@@@@@@@@...",
"...++++++++++++++++...@@@@@@@@@@@@@@@@@@@@@@@@@@@@@@@@@@@@@@@@@@@@@@@@@@@@@@@@@@@@@@@@@@@@@@@@@@@@@@@@@@@@@@@@@@@@@@@@@@@@@@@...",
"...++++++++++++++++...@@@@@@@@@@@@@@@@@@@@@@@@@@@@@@@@@@@@@@@@@@@@@@@@@@@@@@@@@@@@@@@@@@@@@@@@@@@@@@@@@@@@@@@@@@@@@@@@@@@@@@@...",
"...++++++++++++++++...@@@@@@@@@@@@@@@@@@@@@@@@@@@@@@@@@@@@@@@@@@@@@@@@@@@@@@@@@@@@@@@@@@@@@@@@@@@@@@@@@@@@@@@@@@@@@@@@@@@@@@@...",
"...++++++++++++++++...@@@@@@@@@@@@@@@@@@@@@@@@@@@@@@@@@@@@@@@@@@@@@@@@@@@@@@@@@@@@@@@@@@@@@@@@@@@@@@@@@@@@@@@@@@@@@@@@@@@@@@@...",
"...++++++++++++++++...@@@@.........................@@@@@@@@@@@@................................................@@@@@@@@@@@@@@...",
"...++++++++++++++++...@@@@.........................@@@@@@@@@@@@................................................@@@@@@@@@@@@@@...",
"...++++++++++++++++...@@@@.........................@@@@@@@@@@@@................................................@@@@@@@@@@@@@@...",
"...++++++++++++++++...@@@@@@@@@@@@@@@@@@@@@@@@@@@@@@@@@@@@@@@@@@@@@@@@@@@@@@@@@@@@@@@@@@@@@@@@@@@@@@@@@@@@@@@@@@@@@@@@@@@@@@@...",
"...++++++++++++++++...@@@@@@@@@@@@@@@@@@@@@@@@@@@@@@@@@@@@@@@@@@@@@@@@@@@@@@@@@@@@@@@@@@@@@@@@@@@@@@@@@@@@@@@@@@@@@@@@@@@@@@@...",
"...++++++++++++++++...@@@@@@@@@@@@@@@@@@@@@@@@@@@@@@@@@@@@@@@@@@@@@@@@@@@@@@@@@@@@@@@@@@@@@@@@@@@@@@@@@@@@@@@@@@@@@@@@@@@@@@@...",
"...++++++++++++++++...@@@@@@@@@@@@@@@@@@@@@@@@@@@@@@@@@@@@@@@@@@@@@@@@@@@@@@@@@@@@@@@@@@@@@@@@@@@@@@@@@@@@@@@@@@@@@@@@@@@@@@@...",
"...++++++++++++++++...@@@@@@@@@@@@@@@@@@@@@@@@@@@@@@@@@@@@@@@@@@@@@@@@@@@@@@@@@@@@@@@@@@@@@@@@@@@@@@@@@@@@@@@@@@@@@@@@@@@@@@@...",
"...++++++++++++++++...@@@@@@@@@@@@@@@@@@@@@@@@@@@@@@@@@@@@@@@@@@@@@@@@@@@@@@@@@@@@@@@@@@@@@@@@@@@@@@@@@@@@@@@@@@@@@@@@@@@@@@@...",
"...++++++++++++++++...@@@@@@@@@@@@@@@@@@@@@@@@@@@@@@@@@@@@@@@@@@@@@@@@@@@@@@@@@@@@@@@@@@@@@@@@@@@@@@@@@@@@@@@@@@@@@@@@@@@@@@@...",
"...++++++++++++++++...@@@@@@@@@@@@@@@@@@@@@@@@@@@@@@@@@@@@@@@@@@@@@@@@@@@@@@@@@@@@@@@@@@@@@@@@@@@@@@@@@@@@@@@@@@@@@@@@@@@@@@@...",
"................................................................................................................................",
"................................................................................................................................",
"................................................................................................................................"};
