/* XPM */
static char * be_expand_xpm[] = {
"128 128 3 1",
" 	c None",
".	c #000000",
"+	c #FFEB0E",
"..................................                                                            ..................................",
".................................                                                              .................................",
"................................                                                                ................................",
"...............................                                                                  ...............................",
"..............................                                                                    ..............................",
".............................                                                                      .............................",
"............................                                                                        ............................",
"...........................                                                                          ...........................",
"..........................                                                                            ..........................",
".........................                                                                              .........................",
"........................                                                                                ........................",
".......................                                                                                  .......................",
"......................                                                                                    ......................",
".....................                                                                                      .....................",
"....................                                                                                        ....................",
"....................                                                                                        ....................",
".....................                                                                                      .....................",
"......................                                                                                    ......................",
".......................                                                                                  .......................",
"........................                                                                                ........................",
"............... .........                                                                              ......... ...............",
"..............   .........                                                                            .........   ..............",
".............     .........                                                                          .........     .............",
"............       .........                                                                        .........       ............",
"...........         .........                                                                      .........         ...........",
"..........           .........                                                                    .........           ..........",
".........             .........                                                                  .........             .........",
"........               .........                                                                .........               ........",
".......                 .........                                                              .........                 .......",
"......                   .........                                                            .........                   ......",
".....                     .........                                                          .........                     .....",
"....                       .........                                                        .........                       ....",
"...                         .........                                                      .........                         ...",
"..                           .........                                                    .........                           ..",
".                             .........                                                  .........                             .",
"                               ......... +++++++++++++++++++++++++++++++++++++++++++++++.........                               ",
"                                .........+++++++++++++++++++++++++++++++++++++++++++++++........                                ",
"                                 ........+++++++++++++++++++++++++++++++++++++++++++++++.......                                 ",
"                                  .......+++++++++++++++++++++++++++++++++++++++++++++++......                                  ",
"                                   ......+++++++++++++++++++++++++++++++++++++++++++++++.....                                   ",
"                                    .....+++++++++++++++++++++++++++++++++++++++++++++++....                                    ",
"                                     ....+++++++++++++++++++++++++++++++++++++++++++++++...                                     ",
"                                      ...+++++++++++++++++++++++++++++++++++++++++++++++..                                      ",
"                                       ..+++++++++++++++++++++++++++++++++++++++++++++++.                                       ",
"                                        .+++++.....++++.....++++++++++++++++++++++++++++                                        ",
"                                         +++++........................+.....++++++++++++                                        ",
"                                         +++++........................+.....++++++++++++                                        ",
"                                         +++++........................+.....++++++++++++                                        ",
"                                         +++++........................+.....++++++++++++                                        ",
"                                         ++++++++++...................+.....++++++++++++                                        ",
"                                         +++++++++++++++++++++++++++++++++++++++++++++++                                        ",
"                                         +++++++++++++++++++++++++++++++++++++++++++++++                                        ",
"                                         +++++++++++++++++++++++++++++++++++++++++++++++                                        ",
"                                         +++++++++++++++++++++++++++++++++++++++++++++++                                        ",
"                                         +++++++++++++++++++++++++++++++++++++++++++++++                                        ",
"                                         +++++++.................+++.......+++++++++++++                                        ",
"                                         +++++++.................+++.......++.....++++++                                        ",
"                                         +++++++.................+++.......++.....++++++                                        ",
"                                         +++++++.................+++.......++.....++++++                                        ",
"                                         +++++++.................+++.......++.....++++++                                        ",
"                                         ++++++++++++++++++++++++++++++++++++.....++++++                                        ",
"                                         +++++++++++++++++++++++++++++++++++++++++++++++                                        ",
"                                         +++++++++++++++++++++++++++++++++++++++++++++++                                        ",
"                                         +++++++++++++++++++++++++++++++++++++++++++++++                                        ",
"                                         ++++++++++++++++++.......+........+++++++++++++                                        ",
"                                         +++++++.....+............+............+++++++++                                        ",
"                                         +++++++.....+............+............+++++++++                                        ",
"                                         +++++++.....+............+............+++++++++                                        ",
"                                         +++++++.....+............+............+++++++++                                        ",
"                                         +++++++.....+.......+++++++++++++.....+++++++++                                        ",
"                                         +++++++++++++++++++++++++++++++++++++++++++++++                                        ",
"                                         +++++++++++++++++++++++++++++++++++++++++++++++                                        ",
"                                         +++++++++++++++++++++++++++++++++++++++++++++++                                        ",
"                                         +++++++++++++++++++++++++++++++++++++++++++++++                                        ",
"                                         +++++++++++++++++++++++++++++++++++++++++++++++                                        ",
"                                         +++++++++++++++................++++++++++++++++                                        ",
"                                         +++++++......+.......................++++++++++                                        ",
"                                         +++++++......+............................+++++                                        ",
"                                         +++++++......+............................+++++                                        ",
"                                         +++++++......+............................+++++                                        ",
"                                         +++++++......+......+++++++...............+++++                                        ",
"                                         ++++++++++++++++++++++++++++++++++........+++++                                        ",
"                                         +++++++++++++++++++++++++++++++++++++++++++++++                                        ",
"                                        .+++++++++++++++++++++++++++++++++++++++++++++++                                        ",
"                                       ..+++++++++++++++++++++++++++++++++++++++++++++++.                                       ",
"                                      ...+++++++++++++++++++++++++++++++++++++++++++++++..                                      ",
"                                     ....+++++++++++++++++++++++++++++++++++++++++++++++...                                     ",
"                                    .....+++++++++++++++++++++++++++++++++++++++++++++++....                                    ",
"                                   ......+++++++++++++++++++++++++++++++++++++++++++++++.....                                   ",
"                                  .......+++++++++++++++++++++++++++++++++++++++++++++++......                                  ",
"                                 ........+++++++++++++++++++++++++++++++++++++++++++++++.......                                 ",
"                                .........+++++++++++++++++++++++++++++++++++++++++++++++........                                ",
"                               ......... +++++++++++++++++++++++++++++++++++++++++++++++.........                               ",
".                             .........  +++++++++++++++++++++++++++++++++++++++++++++++ .........                             .",
"..                           .........                                                    .........                           ..",
"...                         .........                                                      .........                         ...",
"....                       .........                                                        .........                       ....",
".....                     .........                                                          .........                     .....",
"......                   .........                                                            .........                   ......",
".......                 .........                                                              .........                 .......",
"........               .........                                                                .........               ........",
".........             .........                                                                  .........             .........",
"..........           .........                                                                    .........           ..........",
"...........         .........                                                                      .........         ...........",
"............       .........                                                                        .........       ............",
".............     .........                                                                          .........     .............",
"..............   .........                                                                            .........   ..............",
"............... .........                                                                              ......... ...............",
"........................                                                                                ........................",
".......................                                                                                  .......................",
"......................                                                                                    ......................",
".....................                                                                                      .....................",
"....................                                                                                        ....................",
"....................                                                                                        ....................",
".....................                                                                                      .....................",
"......................                                                                                    ......................",
".......................                                                                                  .......................",
"........................                                                                                ........................",
".........................                                                                              .........................",
"..........................                                                                            ..........................",
"...........................                                                                          ...........................",
"............................                                                                        ............................",
".............................                                                                      .............................",
"..............................                                                                    ..............................",
"...............................                                                                  ...............................",
"................................                                                                ................................",
".................................                                                              .................................",
"..................................                                                            .................................."};
