/* XPM */
static char * erase_xpm[] = {
"128 128 10 1",
" 	c None",
".	c #6BACB0",
"+	c #E0FBFD",
"@	c #000000",
"#	c #000C0D",
"$	c #003033",
"%	c #002F32",
"&	c #000F0F",
"*	c #000E0E",
"=	c #003D41",
"                                                                                                                                ",
"                                                                                                 .                              ",
"                                                                                                .+                              ",
"                                                                                               .+++                             ",
"                                                                                              .+++++                            ",
"                                                                                             .+++++++                           ",
"                                                                                            .+++++++++                          ",
"                                                                                           .+++++++++++                         ",
"                                                                                          .+++++++++++++                        ",
"                                                                                         .+++++++++++++++                       ",
"                                                                                        .+++++++++++++++++                      ",
"                                                                                       .+++++++++++++++++++                     ",
"                                                                                      .+++++++++++++++++++++                    ",
"                                                                                     .+++++++++++++++++++++++                   ",
"                                                                                    .+++++++++++++++++++++++++                  ",
"                                                                                   ..++++++++++++++++++++++++++                 ",
"                                                                                  ..++++++++++++++++++++++++++++                ",
"                                                                                 ..++++++++++++++++++++++++++++++               ",
"                                                                                ..++++++++++++++++++++++++++++++++              ",
"                                                                               ..++++++++++++++++++++++++++++++++++             ",
"                                                                              ..++++++++++++++++++++++++++++++++++++            ",
"                                                                             ..++++++++++++++++++++++++++++++++++++++           ",
"                                                                            ..++++++++++++++++++++++++++++++++++++++++          ",
"                                                                          ...++++++++++++++++++++++++++++++++++++++++++         ",
"                                 @@@@@@@@                                ...++++++++++++++++++++++++++++++++++++++++++++        ",
"                                @@@@@@@@@@                              ...++++++++++++++++++++++++++++++++++++++++++++         ",
"                                @@@@@@@@@@@                            ...++++++++++++++++++++++++++++++++++++++++++++          ",
"                                @@@@@@@@@@@@                          ...++++++++++++++++++++++++++++++++++++++++++++           ",
"                                @@@@@@@@@@@@                         ...++++++++++++++++++++++++++++++++++++++++++++            ",
"                                @@@@@++++@@@@                       ...++++++++++++++++++++++++++++++++++++++++++++             ",
"                                @@@@@++++@@@@@                     .....++++++++++++++++++++++++++++++++++++++++++              ",
"                                @@@@@++++@@@@@                    .......++++++++++++++++++++++++++++++++++++++++               ",
"                                @@@@@++++@@@@@                   .........++++++++++++++++++++++++++++++++++++++                ",
"                                @@@@@++++@@@@@@                 ...........++++++++++++++++++++++++++++++++++++                 ",
"                                @@@@@@@@@@@@@@@                .............++++++++++++++++++++++++++++++++++                  ",
"                                @@@@@@@@@@@@@@@@              ...............++++++++++++++++++++++++++++++++                   ",
"                                @@@@@@@@@@@@@@@@             .................++++++++++++++++++++++++++++++                    ",
"                                @@@@@@@@@@@@@@@@            ...................++++++++++++++++++++++++++++                     ",
"                                @@@@@@@@@@@@@@@@           .....................++++++++++++++++++++++++++                      ",
"                                  @@@@@@@@@@@@@@@         .......................++++++++++++++++++++++++                       ",
"                                         @@@@@@@@        .........................++++++++++++++++++++++                        ",
"                                         @@@@@@@@@      ...........................++++++++++++++++++++                         ",
"                                         @@@@@@@@@     .............................++++++++++++++++++                          ",
"                                         @@@@@@@@@@   ...............................++++++++++++++++                           ",
"                                         @@@@@@@@@@  .................................++++++++++++++                            ",
"                                 @@@@@@@@@@@@@@@@@@#...................................++++++++++++                             ",
"                                @@@@@@@@@@@@@@@@@@@@@+..................................++++++++++                              ",
"                                @@@@@@@@@@@@@@@@@@@@@+...................................++++++++                               ",
"                                @@@@@@@@@@@@@@@@@@@@@+++..................................++++++                                ",
"                                @@@@@@@@@@@@@@@@@@@@@@@++..................................++++                                 ",
"                                @@@@@++++@@@@@@@@@@@@@@+++..................................++                                  ",
"                                @@@@@++++@@@@@@@@@@@@++@+++..................................                                   ",
"                                @@@@@++++@@@@@@@@@@@+@@@+++++...............................                                    ",
"                                @@@@@++++@@@@@@@@@@+@@++++++++.............................                                     ",
"                                @@@@@++++@@@@@@@@@+@@++++++++++...........................                                      ",
"                                @@@@@@@@@@@@@@@@@@+@++++@@@@@@+$.........................                                       ",
"                                @@@@@@@@@@@@@@@@@+@@++++@@+++++++.......................                                        ",
"                                @@@@@@@@@@@@@@@@@+@+++++@+@@@@@@++.....................                                         ",
"                                @@@@@@@@@@@@@@@@@+@+++++@+++++@++%+................... &                                        ",
"                                @@@@@@@@@@@@@@@@+@@+++++@+@@@@@+@+++.................                                           ",
"                                  @@@@@@@@@@@@@@+@++++++@+@@@@@@@+@++...............                                            ",
"                                         @@@@@@@+@++++++@+@@++++@+@@++.............                                             ",
"                                         @@@@@@@+@++++++@+@ @@@+@+@@+++........... *                                            ",
"                                         @@@@@@@+@++++++@+@@++@+@@ @@@++......... &@                                            ",
"                                         @@@@@@@+@++++++@+@ @+@+@@@++++++.......$                                               ",
"                                 @@@@@@@@@@@@@@@+@++++++@+@@@+++@ @@+@++++.....                                                 ",
"                                @@@@@@@@@@@@@@@@+@++++++@++@@@@+@@@@+@+@+++...=                                                 ",
"                                @@@@@@@@@@@@@@@@@@@+++++@+@ @+++@@@@+@+@++++                                                    ",
"                                @@@@@@@@@@@@@@@@@ @+++++@+@ @+@@@ @@@@+@+++++                                                   ",
"                                @@@@@@@@@@@@@@@@@ @+++++@+@@@@++@@+@@@+@+++++          @                                        ",
"                                @@@@@++++@@@@@@@@@@@++++@++@@@@@@++++++@+++++  @      @                                         ",
"                                @@@@@++++@@@@@@@@@ @++++@@@++++@@@+++++@+++++@@ @   @@@+++++                                    ",
"                                @@@@@++++@@@@@@@@@@@@+++@@@@@@@@@@@@@@@@+++@@@@ @@@@@@@+++++@@@@                                ",
"                                @@@@@++++@@@@@@@@@@@@@++++++++++++++++++++@@@@@@@@@@@@@+++++@@@@                                ",
"                                @@@@@++++@@@@@@@@@@@@@@++++++++++++++++++@@@@@@@@@@@@@@++++@@@@@                                ",
"                                @@@@@@@@@@@@@@@@@@@@@@@@@++++++++++++++@@@@@@@@@@@@@@@@@@@@@@@@@                                ",
"                                @@@@@@@@@@@@@@@@@@@@@@@@@@++++++++++++@@@@@@@@@@@@@@@@@@@@@@@@@@                                ",
"                                @@@@@@@@@@@@@@@@@@@@@@@@@@@@@++++++@@@@@@@@@@@@@@@@@@@@@@@@@@@@@                                ",
"                                @@@@@@@@@@@@@@@@@@@@@@@@@@@@@@@@@@@@@@@@@@@@@@@@@@@@@@@@@@@@@@@@                                ",
"                                @@@@@@@@@@@@@@@@@@@@@@@@@@@@@@@@@@@@@@@@@@@@@@@@@@@@@@@@@@@@@@@@                                ",
"                                  @@@@@@@@@@@@@@@@@@@@@@@@@@@@@@@@@@@@@@@@@@@@@@@@@@@@@@@@@@@@                                  ",
"                                         @@@@@@@@@@@@@@@@@@@@@@@@@@@@@@@@@@@@@@@@@@@@@@                                         ",
"                                         @@@@@@@@@@@@@@@@@@@@@@@@@@@@@@@@@@@@@@@@@@@@@@                                         ",
"                                         @@@@@@@@@@@@@@@@@@@@@@@@@@@@@@@@@@@@@@@@@@@@@@                                         ",
"                                         @@@@@@@@@@@@@@@@@@@@@@@@@@@@@@@@@@@@@@@@@@@@@@                                         ",
"                                         @@@@@@@@@@@@@@@@@@@@@@@@@@@@@@@@@@@@@@@@@@@@@@                                         ",
"                                 @@@@@@@@@@@@@@@@@@@@@@@@@@@@@@@@@@@@@@@@@@@@@@@@@@@@@@@@@@@@@@                                 ",
"                                @@@@@@@@@@@@@@@@@@@@@@@@@@@@@@@@@@@@@@@@@@@@@@@@@@@@@@@@@@@@@@@@                                ",
"                                @@@@@@@@@@@@@@@@@@@@@@@@@@@@@@@@@@@@@@@@@@@@@@@@@@@@@@@@@@@@@@@@                                ",
"                                @@@@@@@@@@@@@@@@@@@@@@@@@@@@@@@@@@@@@@@@@@@@@@@@@@@@@@@@@@@@@@@@                                ",
"                                @@@@@@@@@@@@@@@@@@@@@@@@@@@@@@@@@@@@@@@@@@@@@@@@@@@@@@@@@@@@@@@@                                ",
"                                @@@@@++++@@@@@@@@@@@@@@@@@@@@@@@@@@@@@@@@@@@@@@@@@@@@@@++++@@@@@                                ",
"                                @@@@@++++@@@@@@@@@@@@@@@@@@@@@@@@@@@@@@@@@@@@@@@@@@@@@@++++@@@@@                                ",
"                                @@@@@++++@@@@@@@@@@@@@@@@@@@@@@@@@@@@@@@@@@@@@@@@@@@@@@++++@@@@@                                ",
"                                @@@@@++++@@@@@@@@@@@@@@@@@@@@@@@@@@@@@@@@@@@@@@@@@@@@@@++++@@@@@                                ",
"                                @@@@@++++@@@@@@@@@@@@@@@@@@@@@@@@@@@@@@@@@@@@@@@@@@@@@@++++@@@@@                                ",
"                                @@@@@@@@@@@@@@@@@@@@@@@@@@@@@@@@@@@@@@@@@@@@@@@@@@@@@@@@@@@@@@@@                                ",
"                                @@@@@@@@@@@@@@@@@@@@@@@@@@@@@@@@@@@@@@@@@@@@@@@@@@@@@@@@@@@@@@@@                                ",
"                                @@@@@@@@@@@@@@@@@@@@@@@@@@@@@@@@@@@@@@@@@@@@@@@@@@@@@@@@@@@@@@@@                                ",
"                                @@@@@@@@@@@@@@@@@@@@@@@@@@@@@@@@@@@@@@@@@@@@@@@@@@@@@@@@@@@@@@@@                                ",
"                                @@@@@@@@@@@@@@@@@@@@@@@@@@@@@@@@@@@@@@@@@@@@@@@@@@@@@@@@@@@@@@@@                                ",
"                                  @@@@@@@@@@@@@@@@@@@@@@@@@@@@@@@@@@@@@@@@@@@@@@@@@@@@@@@@@@@@                                  ",
"                                         @@@@@@@@@@@@@@@@@@@@@@@@@@@@@@@@@@@@@@@@@@@@@@                                         ",
"                                         @@@@@@@@@@@@@@@@@@@@@@@@@@@@@@@@@@@@@@@@@@@@@@                                         ",
"                                         @@@@@@@@@@@@@@@@@@@@@@@@@@@@@@@@@@@@@@@@@@@@@@                                         ",
"                                          @@@@@@@@@@@@@@@@@@@@@@@@@@@@@@@@@@@@@@@@@@@@                                          ",
"                                          @@@@@@@@@@@@@@@@@@@@@@@@@@@@@@@@@@@@@@@@@@@@                                          ",
"                                          @@@@@@@@@@@@@@@@@@@@@@@@@@@@@@@@@@@@@@@@@@@@                                          ",
"                                          @@@@@@@@@@@@@@@@@@@@@@@@@@@@@@@@@@@@@@@@@@@@                                          ",
"                                           @@@@@@@@@@@@@@@@@@@@@@@@@@@@@@@@@@@@@@@@@@                                           ",
"                                                                                                                                ",
"                                                                                                                                ",
"                                                                                                                                ",
"                                                                                                                                ",
"                                                                                                                                ",
"                                                                                                                                ",
"                                                                                                                                ",
"                                                                                                                                ",
"                                                                                                                                ",
"                                                                                                                                ",
"                                                                                                                                ",
"                                                                                                                                ",
"                                                                                                                                ",
"                                                                                                                                ",
"                                                                                                                                ",
"                                                                                                                                ",
"                                                                                                                                ",
"                                                                                                                                "};
