/* XPM */
static char * logo_xpm[] = {
"128 128 8 1",
" 	c None",
".	c #000000",
"+	c #612727",
"@	c #B33E3E",
"#	c #C9C3C3",
"$	c #EFE8E8",
"%	c #FFFFFF",
"&	c #887373",
"                                                                                                                                ",
"                                                                                                                                ",
"                                                                                                                                ",
"                                                                                                                                ",
"                                                                                                                                ",
"                                                                                                                                ",
"                                                                                                                                ",
"                                                                                                                                ",
"                                                                                                                                ",
"                                                                                                                                ",
"                                                                                                                                ",
"                                                                                                                                ",
"                                        ..............................................                                          ",
"                                        .++++++++++++.@@@@@@@@@@@@@@@@@@@@.++++++++++.                                          ",
"                                        .++++++++++++.@@@@@@@@@@@@@@@@@@@@.++++++++++.                                          ",
"                                        .++++++++++++.@@@@@@@@@@@@@@@@@@@@.++++++++++.                                          ",
"                               ..........++++++++++++.@@@@@@@@@@@@@@@@@@@@.++++++++++..........                                 ",
"                               .###$$$%%.++++++++++++.@@@@@@@@@@@@@@@@@@@@.++++++++++.%%$$$###.                                 ",
"                               .###$$$%%.++++++++++++.@@@@@@@@@@@@@@@@@@@@.++++++++++.%%$$$###.                                 ",
"                               .###$$$%%.++++++++++++.@@@@@@@@@@@@@@@@@@@@.++++++++++.%%$$$###.                                 ",
"                               .###$$$%%.++++++++++++.@@@@@@@@@@@@@@@@@@@@.++++++++++.%%$$$###.                                 ",
"                               .###$$$%%.++++++++++++.@@@@@@@@@@@@@@@@@@@@.++++++++++.%%$$$###.                                 ",
"                               .###$$$%%.++++++++++++.@@@@@@@@@@@@@@@@@@@@.++++++++++.%%$$$###.                                 ",
"                               .###$$$%%.++++++++++++.@@@@@@@@@@@@@@@@@@@@.++++++++++.%%$$$###.                                 ",
"                               .###$$$%%.++++++++++++.@@@@@@@@@@@@@@@@@@@@.++++++++++.%%$$$###.                                 ",
"                               .###$$$%%.++++++++++++......................++++++++++.%%$$$###.                                 ",
"                               .###$$$%%.++++++++++++++++++++++++++++++++++++++++++++.%%$$$###.                                 ",
"                               .###$$$%%.++++++++++++++++++++++++++++++++++++++++++++.%%$$$###.                                 ",
"                               .###$$$%%.++++++++++++++++++++++++++++++++++++++++++++.%%$$$###.                                 ",
"                               .###$$$%%.++++++++++++++++++++++++++++++++++++++++++++.%%$$$###.                                 ",
"                               .###$$$%%.++++++++++++++++++++++++++++++++++++++++++++.%%$$$###.                                 ",
"                               .###$$$%%.++++++++++++++++++++++++++++++++++++++++++++.%%$$$###.                                 ",
"                               .###$$$%%.++++++++++++++++++++++++++++++++++++++++++++.%%$$$###.                                 ",
"                               .###$$$%%.++++++++++++++++++++++++++++++++++++++++++++.%%$$$###.                                 ",
"                               .###$$$%%.++++++++++++++++++++++++++++++++++++++++++++.%%$$$###.                                 ",
"                               .###$$$%%.++++++++++++++++++++++++++++++++++++++++++++.%%$$$###.                                 ",
"                               .###$$$%%.++++++++++++++++++++++++++++++++++++++++++++.%%$$$###.                                 ",
"                               .###$$$%%.++++++++++++++++++++++++++++++++++++++++++++.%%$$$###.                                 ",
"                               .###$$$%%.++++++++++++++++++++++++++++++++++++++++++++.%%$$$###.                                 ",
"                               .###$$$%%.++++++++++++++++++++++++++++++++++++++++++++.%%$$$###.                                 ",
"                               .###$$$%%.++++++++++++++++++++++++++++++++++++++++++++.%%$$$###.                                 ",
"                               .###$$$%%.++++++++++++++++++++++++++++++++++++++++++++.%%$$$###.                                 ",
"                               ..........++++++++++++++++++++######++++++++++++++++++..........                                 ",
"                                        .+++++++++++++++++############+++++++++++++++.                                          ",
"                                        .++++++++++++++++##############++++++++++++++.                                          ",
"                                        .++++++++++++++##################++++++++++++.                                          ",
"                                        .+++++++++++++####################+++++++++++.                                          ",
"                                        .++++++++++++######################++++++++++.                                          ",
"                                        .++++++++++++######################++++++++++.                                          ",
"                                        .+++++++++++########################+++++++++.                                          ",
"                                        .++++++++++##########################++++++++.                                          ",
"                                        .++++++++++##&&&&&&&&&&&&&&&&&&&&&&##++++++++.                                          ",
"                                        .+++++++++###&&&&&&&&&&&&&&&&&&&&&&###+++++++.                                          ",
"                               ..........+++++++++###&&&&&&&&&&&&&&&&&&&&&&###+++++++..........                                 ",
"                               .###$$$%%.++++++++####&&&&&&&&&&&&&&&&&&&&&&####++++++.%%$$$###.                                 ",
"                               .###$$$%%.++++++++####&&&&&&&&&&&&&&&&&&&&&&####++++++.%%$$$###.                                 ",
"                               .###$$$%%.++++++++####&&&&&&&&&&&&&&&&&&&&&&####++++++.%%$$$###.                                 ",
"                               .###$$$%%.+++++++#####&&&&&&&&&&&&&&&&&&&&&&#####+++++.%%$$$###.                                 ",
"                               .###$$$%%.+++++++#####&&&&&&&&&&&&&&&&&&&&&&#####+++++.%%$$$###.                                 ",
"                               .###$$$%%.+++++++#####&&&&&&&&&&&&&&&&&&&&&&#####+++++.%%$$$###.                                 ",
"                               .###$$$%%.+++++++#####&&&&&&&&&&&&&&&&&&&&&&#####+++++.%%$$$###.                                 ",
"                               .###$$$%%.++++++######&&&&&&&&&&&&&&&&&&&&&&######++++.%%$$$###.                                 ",
"                               .###$$$%%.++++++######&&&&&&&&&&&&&&&&&&&&&&######++++.%%$$$###.                                 ",
"                               .###$$$%%.++++++######&&&&&&&&&&&&&&&&&&&&&&######++++.%%$$$###.                                 ",
"                               .###$$$%%.++++++######&&&&&&&&&&&&&&&&&&&&&&######++++.%%$$$###.                                 ",
"                               .###$$$%%.++++++######&&&&&&&&&&&&&&&&&&&&&&######++++.%%$$$###.                                 ",
"                               .###$$$%%.++++++######&&&&&&&&&&&&&&&&&&&&&&######++++.%%$$$###.                                 ",
"                               .###$$$%%.++++++######&&&&&&&&&&&&&&&&&&&&&&######++++.%%$$$###.                                 ",
"                               .###$$$%%.++++++######&&&&&&&&&&&&&&&&&&&&&&######++++.%%$$$###.                                 ",
"                               .###$$$%%.++++++######&&&&&&&&&&&&&&&&&&&&&&######++++.%%$$$###.                                 ",
"                               .###$$$%%.++++++######&&&&&&&&&&&&&&&&&&&&&&######++++.%%$$$###.                                 ",
"                               .###$$$%%.+++++++#####&&&&&&&&&&&&&&&&&&&&&&#####+++++.%%$$$###.                                 ",
"                               .###$$$%%.+++++++#####&&&&&&&&&&&&&&&&&&&&&&#####+++++.%%$$$###.                                 ",
"                               .###$$$%%.+++++++#####&&&&&&&&&&&&&&&&&&&&&&#####+++++.%%$$$###.                                 ",
"                               .###$$$%%.+++++++#####&&&&&&&&&&&&&&&&&&&&&&#####+++++.%%$$$###.                                 ",
"                               .###$$$%%.++++++++####&&&&&&&&&&&&&&&&&&&&&&####++++++.%%$$$###.                                 ",
"                               .###$$$%%.++++++++####&&&&&&&&&&&&&&&&&&&&&&####++++++.%%$$$###.                                 ",
"                               .###$$$%%.++++++++####&&&&&&&&&&&&&&&&&&&&&&####++++++.%%$$$###.                                 ",
"                               .###$$$%%.+++++++++###&&&&&&&&&&&&&&&&&&&&&&###+++++++.%%$$$###.                                 ",
"                               ..........+++++++++###&&&&&&&&&&&&&&&&&&&&&&###+++++++..........                                 ",
"                                        .++++++++++##&&&&&&&&&&&&&&&&&&&&&&##++++++++.                                          ",
"                                        .++++++++++##&&&&&&&&&&&&&&&&&&&&&&##++++++++.                                          ",
"                                        .+++++++++++#&&&&&&&&&&&&&&&&&&&&&&#+++++++++.                                          ",
"                                        .++++++++++++######################++++++++++.                                          ",
"                                        .++++++++++++######################++++++++++.                                          ",
"                                        .+++++++++++++####################+++++++++++.                                          ",
"                                        .++++++++++++++##################++++++++++++.                                          ",
"                                        .++++++++++++++++##############++++++++++++++.                                          ",
"                               ..........+++++++++++++++++############+++++++++++++++..........                                 ",
"                               .###$$$%%.++++++++++++++++++++######++++++++++++++++++.%%$$$###.                                 ",
"                               .###$$$%%.++++++++++++++++++++++++++++++++++++++++++++.%%$$$###.                                 ",
"                               .###$$$%%.++++++++++++++++++++++++++++++++++++++++++++.%%$$$###.                                 ",
"                               .###$$$%%.++++++++++++++++++++++++++++++++++++++++++++.%%$$$###.                                 ",
"                               .###$$$%%.++++++++++++++++++++++++++++++++++++++++++++.%%$$$###.                                 ",
"                               .###$$$%%.++++++++++++++++++++++++++++++++++++++++++++.%%$$$###.                                 ",
"                               .###$$$%%.++++++++++++++++++++++++++++++++++++++++++++.%%$$$###.                                 ",
"                               .###$$$%%.++++++++++++++++++++++++++++++++++++++++++++.%%$$$###.                                 ",
"                               .###$$$%%.++++++++++++++++++++++++++++++++++++++++++++.%%$$$###.                                 ",
"                               .###$$$%%.++++++++++++++++++++++++++++++++++++++++++++.%%$$$###.                                 ",
"                               .###$$$%%.++++++++++++++++++++++++++++++++++++++++++++.%%$$$###.                                 ",
"                               .###$$$%%.++++++++++++++++++++++++++++++++++++++++++++.%%$$$###.                                 ",
"                               .###$$$%%.++++++++++++++++++++++++++++++++++++++++++++.%%$$$###.                                 ",
"                               .###$$$%%.++++++++++++++++++++++++++++++++++++++++++++.%%$$$###.                                 ",
"                               .###$$$%%.++++++++++++++++++++++++++++++++++++++++++++.%%$$$###.                                 ",
"                               .###$$$%%.++++++++++++++++++++++++++++++++++++++++++++.%%$$$###.                                 ",
"                               .###$$$%%.++++++++++++++++++++++++++++++++++++++++++++.%%$$$###.                                 ",
"                               .###$$$%%.++++++++++++++++++++++++++++++++++++++++++++.%%$$$###.                                 ",
"                               .###$$$%%.++++++++++++++++++++++++++++++++++++++++++++.%%$$$###.                                 ",
"                               .###$$$%%.++++++++++++++++++++++++++++++++++++++++++++.%%$$$###.                                 ",
"                               .###$$$%%.++++++++++++++++++++++++++++++++++++++++++++.%%$$$###.                                 ",
"                               .###$$$%%.++++++++++++++++++++++++++++++++++++++++++++.%%$$$###.                                 ",
"                               .###$$$%%.++++++++++++++++++++++++++++++++++++++++++++.%%$$$###.                                 ",
"                               .###$$$%%.++++++++++++++++++++++++++++++++++++++++++++.%%$$$###.                                 ",
"                               .###$$$%%.++++++++++++++++++++++++++++++++++++++++++++.%%$$$###.                                 ",
"                               ..........++++++++++++++++++++++++++++++++++++++++++++..........                                 ",
"                                        .++++++++++++++++++++++++++++++++++++++++++++.                                          ",
"                                        .++++++++++++++++++++++++++++++++++++++++++++.                                          ",
"                                        .++++++++++++++++++++++++++++++++++++++++++++.                                          ",
"                                        ..............................................                                          ",
"                                                                                                                                ",
"                                                                                                                                ",
"                                                                                                                                ",
"                                                                                                                                ",
"                                                                                                                                ",
"                                                                                                                                ",
"                                                                                                                                ",
"                                                                                                                                ",
"                                                                                                                                "};
