/* XPM */
static char * signature_xpm[] = {
"128 128 85 1",
" 	c None",
".	c #000000",
"+	c #FFFFFF",
"@	c #FBF207",
"#	c #BCB505",
"$	c #7D7903",
"%	c #9D9704",
"&	c #3E3C01",
"*	c #1F1E00",
"=	c #DBD306",
"-	c #3A3701",
";	c #1E1D00",
">	c #5E5B02",
",	c #8C8703",
"'	c #464401",
")	c #9C9604",
"!	c #E2DA06",
"~	c #B6AF05",
"{	c #010100",
"]	c #C8C105",
"^	c #635F02",
"/	c #3B3801",
"(	c #131200",
"_	c #646002",
":	c #575402",
"<	c #0E0E00",
"[	c #0F0F00",
"}	c #232200",
"|	c #2F2D01",
"1	c #898403",
"2	c #0B0B00",
"3	c #181700",
"4	c #B0A904",
"5	c #323001",
"6	c #1D1C00",
"7	c #959004",
"8	c #EEE506",
"9	c #D6CE05",
"0	c #C1BA05",
"a	c #BFB905",
"b	c #EFE606",
"c	c #191800",
"d	c #383601",
"e	c #A9A304",
"f	c #979204",
"g	c #716D03",
"h	c #272501",
"i	c #757003",
"j	c #4E4B02",
"k	c #A49E04",
"l	c #545102",
"m	c #454301",
"n	c #121200",
"o	c #4A4802",
"p	c #070700",
"q	c #050500",
"r	c #090900",
"s	c #2D2B01",
"t	c #111100",
"u	c #171600",
"v	c #151400",
"w	c #7D7803",
"x	c #888303",
"y	c #2E2C01",
"z	c #524F02",
"A	c #837F03",
"B	c #0C0C00",
"C	c #C9C205",
"D	c #CBC405",
"E	c #666202",
"F	c #6C6803",
"G	c #2C2A01",
"H	c #5D5A02",
"I	c #787303",
"J	c #1A1900",
"K	c #302E01",
"L	c #ADA704",
"M	c #7B7603",
"N	c #292701",
"O	c #060600",
"P	c #2A2801",
"Q	c #676302",
"R	c #555202",
"S	c #020200",
"T	c #242301",
"                                                                                                                                ",
"                                                                                                                                ",
"                                                                                                                                ",
"                                                                                                                                ",
"                                                                                                                                ",
"                                                                                                                                ",
"                                                                                                                                ",
"                                                                                                                                ",
"                                                                                                                                ",
"                                                                                                                                ",
"                                                                                                                                ",
"                                                                                                                                ",
"                                                                                                                                ",
"                                                                                                                                ",
"                                                                                                                                ",
"                                                                                                                                ",
"                                                                                                                                ",
"                                          ............................................                                          ",
"                                          .............................................                                         ",
"                                         ..............................................                                         ",
"                                         ..............................................                                         ",
"                                          .............................................                                         ",
"                                         ..............................................                                         ",
"                                         ..............................................                                         ",
"                                 ..............................................................                                 ",
"                                ................................................................                                ",
"                                ................................................................                                ",
"                                ................................................................                                ",
"                                ................................................................                                ",
"                                .....++++..............................................++++.....                                ",
"                                .....++++.....................@@@@.....................++++.....                                ",
"                                .....++++....................@@@@@@@...................++++.....                                ",
"                                .....++++..................@@@@@@@@@@..................++++.....                                ",
"                                .....++++.................@@@@#$$$#@@@.................++++.....                                ",
"                                ..........................@@@%&...&%@@@.........................                                ",
"                                .........................@@@#*.....*#@@.........................                                ",
"                                ........................@@@@&.......&@@@........................                                ",
"                                .......................@@@@@.........@@@@.......................                                ",
"                                .......................@@@@@.........@@@@.......................                                ",
"                                  ....................@@@@@@&.......&@@@@@....................                                  ",
"                                         ............@@@@@@@#*.....*#@@@@@@............                                         ",
"                                         ...........@@@@@@@@@%&...&%@@@@@@@............                                         ",
"                                         ...........@@@@@@@@@@#$$$#@@@@@@@@@...........                                         ",
"                                         ..........@@@@@@@@@@@@@@@@@@@@@@@@@@..........                                         ",
"                                         .........@@@@@@@@@@@@@@@@@@@@@@@@@@@..........                                         ",
"                                 .................@@@@@@@@@@@@@@@@@@@@@@@@@@@@.................                                 ",
"                                .................@@@@@@@@@@@@@@@@@@@@@@@@@@@@@..................                                ",
"                                ................@@@@@@@@@@@@@@@@@@@@@@@@@@@@@@@.................                                ",
"                                ...............@@@@@@@@@@@@@@@@@@@@@@@@@@@@@@@@@................                                ",
"                                ...............@@@@@@@@@@@@@@@@@@@@@@@@@@@@@@@@@................                                ",
"                                .....++++.....@@@@@@@@@@@@@@@@@@@@@@@@@@@@@@@@@@@......++++.....                                ",
"                                .....++++.....@@@@@@@@@@@@@@@@@@@@@@@@@@@@@@@@@@@......++++.....                                ",
"                                .....++++.....@@@=-.;>,>'>#@@@@@@@@@@@@@@@@@@@@@@......++++.....                                ",
"                                .....++++.....@@@)........&@@@@@@@@@@@@@!~~!@@@@@......++++.....                                ",
"                                .....++++.....@@@){.......&@@@]^/(........._@@@@@......++++.....                                ",
"                                ..............@@@=:<[}.|'>#@@@12...........3@@@@@...............                                ",
"                                ..............@@@@@@@@@@@@@@@@45(........<67@@@@@...............                                ",
"                                ..............@@@@@@@@@@@@@@@@890a!@@@@@@@@@@@@@@...............                                ",
"                                ..............@@@@@@@@@@@@@@@@@@@@@@@@@@@@@@@@@@@...............                                ",
"                                ..............@@@@@@@@@@@@@@@@@@@@@@@@@@@@@@@@@@@...............                                ",
"                                  ............@@@@@@@@@@@@@@@@@@@@@@@@@@@@@@@@@@@.............                                  ",
"                                         .....@@@@b99b@@@@@@@@@@@@@@@@@@@@@@@@@@@......                                         ",
"                                         .....@@@@456cd'''>efg#@@@@@@@@@@@@@@@@@@......                                         ",
"                                         .....@@@@12..........&@@@@@@@@@@@@@@@@@@......                                         ",
"                                         .....@@@@]^h.........&@@@@@=ijk@@@@@@@@@......                                         ",
"                                 .............@@@@@@!flmm'|.no#@@@@@)p.qo#@@@@@@@..............                                 ",
"                                ..............@@@@@@@@@@@@@@@@@@@@@@)p...rd'>#@@@...............                                ",
"                                ..............@@@@@@@@@@@@@@@@@@@@@@=i*......|@@@...............                                ",
"                                ..............@@@@@@@@@@@@@@@@@@@@@@@@!fs....*@@@...............                                ",
"                                ..............@@@@@@@@@@@@@@@@@@@@@@@@@@!f&tu,@@@...............                                ",
"                                .....++++.....@@@@@@@@@@@@@76tvd>#@@@@@@@@@@@@@@@......++++.....                                ",
"                                .....++++.....@@@@@@@@@@@@@3......nd>#@@@@@@@@@@@......++++.....                                ",
"                                .....++++.....@@@@@@@@@@@@@_..........w@@@@@@@@@@......++++.....                                ",
"                                .....++++.....@@@@@@@@@@@@@!~kxly......@@@@@@@@@@......++++.....                                ",
"                                .....++++.....@@@@@@@@@@@@@@@@@@@!gv2.w@@@@@@@@@@......++++.....                                ",
"                                ..............@@@=)iz'>e~~!@@@@@@@@@@@@@@@@@@@@@@...............                                ",
"                                ..............@@@)*p......_@@@@@@@@@@@@@@@@@@@@@@...............                                ",
"                                ..............@@@)*p......3@@@@@=i'A!@@@@@@@@@@@@...............                                ",
"                                ..............@@@=)iz'|.<67@@@@@)p..r.<ttt67@@@@@...............                                ",
"                                ..............@@@@@@@@@@@@@@@@@@)p.........3@@@@@...............                                ",
"                                  ............@@@@@@@@@@@@@@@@@@=i|B......._@@@@@.............                                  ",
"                                         .....@@@@@@@@@@@@@@@@@@@@@!CD~kkk~!@@@@@......                                         ",
"                                         .....@@@@@@@!~xEf!@@@@@@@@@@@@@@@@@@@@@@......                                         ",
"                                         .....@@@#>dv2....tFkkkkk~!@@@@@@@@@@@@@@......                                         ",
"                                         .....@@@&................_@@@@@@@@@@@@@@......                                         ",
"                                         .....@@@&....2vG<........3@@@@@@@@@@@@@@......                                         ",
"                                 .............@@@#Hlx~!@@!IJttttt67@@@@@@@@@@@@@@..............                                 ",
"                                ..............@@@@@@@@@@@@@@@@@@@@@@@@@@@@@@@@@@@...............                                ",
"                                ..............@@@@@@@@@@@@@@@@@@@@@@@@@@@@@@@@@@@...............                                ",
"                                ..............@@@@@@@@@@@@@@@@@@@@@@@@@@@@@@@@@@@...............                                ",
"                                ..............@@@@@@@@@@@@@@@@@@@@@@@@@@@@@@@@@@@...............                                ",
"                                .....++++.....@@@@@@]^/uttttttttttttttttttt67@@@@......++++.....                                ",
"                                .....++++.....@@@@@@12.......................K#@@......++++.....                                ",
"                                .....++++.....@@@@@@45(.......................&@@......++++.....                                ",
"                                .....++++.....@@@@@@890LkkkkkkkkkkkkkkkkkMp...&@@......++++.....                                ",
"                                .....++++.....@@@@@@@@@@@@@@@@@@@@@@@@@@@@#NOP#@@......++++.....                                ",
"                                ..............@@@@@@@@@@@@@@@@@@@@@@@@@@@@@@@@@@@...............                                ",
"                                ..............@@@@@@b4Qo''Rf!@@@@@@@@@@@@@@@@@@@@...............                                ",
"                                ..............@@@@@@95S....._@@@@@@@@@@@@@@@@@@@@...............                                ",
"                                ..............@@@@@@95S.....3@@@@@@@@@@@@@@@@@@@@...............                                ",
"                                ..............@@@@@@b4Qo''dT7@@@@@@@@@@@@@@@@@@@@...............                                ",
"                                  ............@@@@@@@@@@@@@@@@@@@@@@@@@@@@@@@@@@@.............                                  ",
"                                         .....@@@@@@@@@@@@@@@@@@@@@@@@@@@@@@@@@@@......                                         ",
"                                         .....@@@@@@@@@@@@@@@@@@@@@@@@@@@@@@@@@@@......                                         ",
"                                         ..............................................                                         ",
"                                          ............................................                                          ",
"                                          ............................................                                          ",
"                                          ............................................                                          ",
"                                          ............................................                                          ",
"                                           ..........................................                                           ",
"                                                                                                                                ",
"                                                                                                                                ",
"                                                                                                                                ",
"                                                                                                                                ",
"                                                                                                                                ",
"                                                                                                                                ",
"                                                                                                                                ",
"                                                                                                                                ",
"                                                                                                                                ",
"                                                                                                                                ",
"                                                                                                                                ",
"                                                                                                                                ",
"                                                                                                                                ",
"                                                                                                                                ",
"                                                                                                                                ",
"                                                                                                                                ",
"                                                                                                                                ",
"                                                                                                                                "};
